<svg id="Layer_1" xmlns="http://www.w3.org/2000/svg" viewBox="0 0 100 100"><style>.st0{fill:url(#SVGID_1_)}.st1{fill:url(#SVGID_2_)}</style><linearGradient id="SVGID_1_" gradientUnits="userSpaceOnUse" x1="50" y1="8" x2="50" y2="92"><stop offset="0" stop-color="#fff" stop-opacity="0"/><stop offset=".136" stop-color="#fdfeff" stop-opacity="0"/><stop offset=".215" stop-color="#f4fcff" stop-opacity="0"/><stop offset=".28" stop-color="#e6f8ff" stop-opacity="0"/><stop offset=".336" stop-color="#d2f2ff" stop-opacity="0"/><stop offset=".387" stop-color="#b8eaff" stop-opacity=".2"/><stop offset=".435" stop-color="#99e1ff" stop-opacity=".3"/><stop offset=".48" stop-color="#73d6fe" stop-opacity=".4"/><stop offset=".522" stop-color="#47c9fe" stop-opacity=".919"/><stop offset=".561" stop-color="#17bbfe" stop-opacity=".988"/><stop offset=".569" stop-color="#0db8fe"/><stop offset=".614" stop-color="#0db8fe"/><stop offset=".994" stop-color="#0db8fe"/></linearGradient><path class="st0" d="M67.3 18C75.4 18 82 24.6 82 32.7v34.5C82 75.4 75.4 82 67.3 82H32.7C24.6 82 18 75.4 18 67.3V32.7C18 24.6 24.6 18 32.7 18h34.6m0-10H32.7C19.1 8 8 19.1 8 32.7v34.5C8 80.9 19.1 92 32.7 92h34.5C80.9 92 92 80.9 92 67.3V32.7C92 19.1 80.9 8 67.3 8z"/><g><linearGradient id="SVGID_2_" gradientUnits="userSpaceOnUse" x1="50" x2="50" y2="100"><stop offset="0" stop-color="#fff" stop-opacity="0"/><stop offset=".136" stop-color="#fdfeff" stop-opacity="0"/><stop offset=".215" stop-color="#f4fcff" stop-opacity="0"/><stop offset=".28" stop-color="#e6f8ff" stop-opacity="0"/><stop offset=".336" stop-color="#d2f2ff" stop-opacity="0"/><stop offset=".387" stop-color="#b8eaff" stop-opacity="0"/><stop offset=".435" stop-color="#99e1ff" stop-opacity=".2"/><stop offset=".48" stop-color="#73d6fe" stop-opacity=".3"/><stop offset=".522" stop-color="#47c9fe" stop-opacity=".919"/><stop offset=".561" stop-color="#17bbfe" stop-opacity=".988"/><stop offset=".569" stop-color="#0db8fe"/><stop offset=".614" stop-color="#0db8fe"/><stop offset=".994" stop-color="#0db8fe"/></linearGradient><path class="st1" d="M67.9 4C83.4 4 96 16.6 96 32.1v35.8C96 83.4 83.4 96 67.9 96H32.1C16.6 96 4 83.4 4 67.9V32.1C4 16.6 16.6 4 32.1 4h35.8m0-4H32.1C14.4 0 0 14.4 0 32.1v35.8C0 85.6 14.4 100 32.1 100h35.8c17.7 0 32.1-14.4 32.1-32.1V32.1C100 14.4 85.6 0 67.9 0z"/></g></svg>